<svg width="1440" height="320" viewBox="0 0 1440 320" xmlns="http://www.w3.org/2000/svg" preserveAspectRatio="none">
  <g opacity="0.3">
    <path fill="rgba(0, 217, 255, 0.2)" d="M0,192L48,197.3C96,203,192,213,288,229.3C384,245,480,267,576,250.7C672,235,768,181,864,160C960,139,1056,149,1152,160C1248,171,1344,181,1392,186.7L1440,192L1440,320L1392,320C1344,320,1248,320,1152,320C1056,320,960,320,864,320C768,320,672,320,576,320C480,320,384,320,288,320C192,320,96,320,48,320L0,320Z"></path>
    <path fill="rgba(0, 217, 255, 0.4)" d="M0,224L48,213.3C96,203,192,181,288,181.3C384,181,480,203,576,224C672,245,768,267,864,261.3C960,256,1056,224,1152,208C1248,192,1344,192,1392,192L1440,192L1440,320L1392,320C1344,320,1248,320,1152,320C1056,320,960,320,864,320C768,320,672,320,576,320C480,320,384,320,288,320C192,320,96,320,48,320L0,320Z"></path>
  </g>
</svg>